<?xml version="1.0" encoding="UTF-8" standalone="no"?>
<svg
   xmlns:dc="http://purl.org/dc/elements/1.1/"
   xmlns:cc="http://creativecommons.org/ns#"
   xmlns:rdf="http://www.w3.org/1999/02/22-rdf-syntax-ns#"
   xmlns:svg="http://www.w3.org/2000/svg"
   xmlns="http://www.w3.org/2000/svg"
   xmlns:xlink="http://www.w3.org/1999/xlink"
   xmlns:sodipodi="http://sodipodi.sourceforge.net/DTD/sodipodi-0.dtd"
   xmlns:inkscape="http://www.inkscape.org/namespaces/inkscape"
   width="210mm"
   height="297mm"
   viewBox="0 0 210 297"
   version="1.1"
   id="svg8"
   inkscape:version="1.0.1 (3bc2e813f5, 2020-09-07)"
   sodipodi:docname="french_bread.svg">
  <defs
     id="defs2">
    <linearGradient
       inkscape:collect="always"
       id="linearGradient868">
      <stop
         style="stop-color:#ff9955;stop-opacity:1;"
         offset="0"
         id="stop864" />
      <stop
         style="stop-color:#ff9955;stop-opacity:0;"
         offset="1"
         id="stop866" />
    </linearGradient>
    <linearGradient
       inkscape:collect="always"
       xlink:href="#linearGradient868"
       id="linearGradient870"
       x1="83.875282"
       y1="134.10773"
       x2="347.24789"
       y2="141.03827"
       gradientUnits="userSpaceOnUse" />
    <linearGradient
       inkscape:collect="always"
       xlink:href="#linearGradient868"
       id="linearGradient891"
       gradientUnits="userSpaceOnUse"
       x1="83.875282"
       y1="134.10773"
       x2="347.24789"
       y2="141.03827" />
    <linearGradient
       inkscape:collect="always"
       xlink:href="#linearGradient868"
       id="linearGradient905"
       gradientUnits="userSpaceOnUse"
       x1="83.875282"
       y1="134.10773"
       x2="347.24789"
       y2="141.03827" />
  </defs>
  <sodipodi:namedview
     id="base"
     pagecolor="#ffffff"
     bordercolor="#666666"
     borderopacity="1.0"
     inkscape:pageopacity="0.0"
     inkscape:pageshadow="2"
     inkscape:zoom="0.12374369"
     inkscape:cx="328.12647"
     inkscape:cy="454.52404"
     inkscape:document-units="mm"
     inkscape:current-layer="layer1"
     inkscape:document-rotation="0"
     showgrid="false"
     showborder="false"
     inkscape:window-width="1530"
     inkscape:window-height="991"
     inkscape:window-x="26"
     inkscape:window-y="23"
     inkscape:window-maximized="0" />
  <metadata
     id="metadata5">
    <rdf:RDF>
      <cc:Work
         rdf:about="">
        <dc:format>image/svg+xml</dc:format>
        <dc:type
           rdf:resource="http://purl.org/dc/dcmitype/StillImage" />
        <dc:title></dc:title>
      </cc:Work>
    </rdf:RDF>
  </metadata>
  <g
     inkscape:label="Layer 1"
     inkscape:groupmode="layer"
     id="layer1">
    <rect
       style="fill:#784421;fill-opacity:0.976955;stroke:none;stroke-width:1;stroke-linecap:round;stroke-linejoin:round;stroke-opacity:0.980392"
       id="rect907"
       width="786.10645"
       height="460.53882"
       x="-272.97406"
       y="-101.84856"
       ry="0"
       inkscape:export-xdpi="96"
       inkscape:export-ydpi="96" />
    <g
       id="g889"
       transform="rotate(129.20808,66.765952,135.68395)"
       inkscape:export-xdpi="96"
       inkscape:export-ydpi="96">
      <rect
         style="fill:url(#linearGradient891);fill-opacity:1;stroke-width:1;stroke-linecap:round;stroke-linejoin:round;stroke-opacity:0.980392"
         id="rect879"
         width="77.036278"
         height="326.62753"
         x="76.463402"
         y="-26.851076"
         ry="45.10762" />
      <path
         id="path881"
         style="fill:#ff802b;fill-opacity:0.438061;stroke-width:1;stroke-linecap:round;stroke-linejoin:round;stroke-opacity:0.980392"
         d="m 114.88231,-28.018087 9.80974,324.701577 c 15.97287,-5.49841 27.5792,-22.71601 27.5792,-43.24802 V 17.023595 c 0,-24.5430441 -16.58131,-44.340301 -37.38894,-45.041682 z" />
      <path
         style="fill:#9c3e00;fill-opacity:1;stroke:none;stroke-width:0.264583px;stroke-linecap:butt;stroke-linejoin:miter;stroke-opacity:1"
         d="m 152.73514,77.965445 c 0,0 -19.21731,19.347806 -38.07234,12.200434 -18.855028,-7.147372 -6.06994,10.558191 -6.06994,10.558191 0,0 -1.54828,2.8199 7.28623,5.3621 8.83451,2.54219 29.27749,-7.187051 34.28253,-11.266042 5.00504,-4.078992 2.57352,-16.854683 2.57352,-16.854683 z"
         id="path883" />
      <path
         style="fill:#9c3e00;fill-opacity:1;stroke:none;stroke-width:0.264583px;stroke-linecap:butt;stroke-linejoin:miter;stroke-opacity:1"
         d="m 152.73514,110.24462 c 0,0 -19.21731,19.34781 -38.07234,12.20044 -18.855028,-7.14738 -6.06994,10.5582 -6.06994,10.5582 0,0 -1.54828,2.8199 7.28623,5.3621 8.83451,2.54219 29.27749,-7.18706 34.28253,-11.26605 5.00504,-4.07899 2.57352,-16.85469 2.57352,-16.85469 z"
         id="path885" />
      <path
         style="fill:#9c3e00;fill-opacity:1;stroke:none;stroke-width:0.264583px;stroke-linecap:butt;stroke-linejoin:miter;stroke-opacity:1"
         d="m 152.73514,141.99464 c 0,0 -19.21731,19.34781 -38.07234,12.20044 -18.855028,-7.14738 -6.06994,10.5582 -6.06994,10.5582 0,0 -1.54828,2.8199 7.28623,5.3621 8.83451,2.54219 29.27749,-7.18706 34.28253,-11.26605 5.00504,-4.07899 2.57352,-16.85469 2.57352,-16.85469 z"
         id="path887" />
    </g>
    <g
       id="g877"
       transform="rotate(129.20808,114.98154,135.87918)"
       inkscape:export-xdpi="96"
       inkscape:export-ydpi="96">
      <rect
         style="fill:url(#linearGradient870);fill-opacity:1;stroke-width:1;stroke-linecap:round;stroke-linejoin:round;stroke-opacity:0.980392"
         id="rect833"
         width="77.036278"
         height="326.62753"
         x="76.463402"
         y="-26.851076"
         ry="45.10762" />
      <path
         id="path846"
         style="fill:#ff802b;fill-opacity:0.438061;stroke-width:1;stroke-linecap:round;stroke-linejoin:round;stroke-opacity:0.980392"
         d="m 114.88231,-28.018087 9.80974,324.701577 c 15.97287,-5.49841 27.5792,-22.71601 27.5792,-43.24802 V 17.023595 c 0,-24.5430441 -16.58131,-44.340301 -37.38894,-45.041682 z" />
      <path
         style="fill:#9c3e00;fill-opacity:1;stroke:none;stroke-width:0.264583px;stroke-linecap:butt;stroke-linejoin:miter;stroke-opacity:1"
         d="m 152.73514,77.965445 c 0,0 -19.21731,19.347806 -38.07234,12.200434 -18.855028,-7.147372 -6.06994,10.558191 -6.06994,10.558191 0,0 -1.54828,2.8199 7.28623,5.3621 8.83451,2.54219 29.27749,-7.187051 34.28253,-11.266042 5.00504,-4.078992 2.57352,-16.854683 2.57352,-16.854683 z"
         id="path837" />
      <path
         style="fill:#9c3e00;fill-opacity:1;stroke:none;stroke-width:0.264583px;stroke-linecap:butt;stroke-linejoin:miter;stroke-opacity:1"
         d="m 152.73514,110.24462 c 0,0 -19.21731,19.34781 -38.07234,12.20044 -18.855028,-7.14738 -6.06994,10.5582 -6.06994,10.5582 0,0 -1.54828,2.8199 7.28623,5.3621 8.83451,2.54219 29.27749,-7.18706 34.28253,-11.26605 5.00504,-4.07899 2.57352,-16.85469 2.57352,-16.85469 z"
         id="path839" />
      <path
         style="fill:#9c3e00;fill-opacity:1;stroke:none;stroke-width:0.264583px;stroke-linecap:butt;stroke-linejoin:miter;stroke-opacity:1"
         d="m 152.73514,141.99464 c 0,0 -19.21731,19.34781 -38.07234,12.20044 -18.855028,-7.14738 -6.06994,10.5582 -6.06994,10.5582 0,0 -1.54828,2.8199 7.28623,5.3621 8.83451,2.54219 29.27749,-7.18706 34.28253,-11.26605 5.00504,-4.07899 2.57352,-16.85469 2.57352,-16.85469 z"
         id="path841" />
    </g>
    <g
       id="g903"
       transform="rotate(129.20808,163.85984,142.87333)"
       inkscape:export-xdpi="96"
       inkscape:export-ydpi="96">
      <rect
         style="fill:url(#linearGradient905);fill-opacity:1;stroke-width:1;stroke-linecap:round;stroke-linejoin:round;stroke-opacity:0.980392"
         id="rect893"
         width="77.036278"
         height="326.62753"
         x="76.463402"
         y="-26.851076"
         ry="45.10762" />
      <path
         id="path895"
         style="fill:#ff802b;fill-opacity:0.438061;stroke-width:1;stroke-linecap:round;stroke-linejoin:round;stroke-opacity:0.980392"
         d="m 114.88231,-28.018087 9.80974,324.701577 c 15.97287,-5.49841 27.5792,-22.71601 27.5792,-43.24802 V 17.023595 c 0,-24.5430441 -16.58131,-44.340301 -37.38894,-45.041682 z" />
      <path
         style="fill:#9c3e00;fill-opacity:1;stroke:none;stroke-width:0.264583px;stroke-linecap:butt;stroke-linejoin:miter;stroke-opacity:1"
         d="m 152.73514,77.965445 c 0,0 -19.21731,19.347806 -38.07234,12.200434 -18.855028,-7.147372 -6.06994,10.558191 -6.06994,10.558191 0,0 -1.54828,2.8199 7.28623,5.3621 8.83451,2.54219 29.27749,-7.187051 34.28253,-11.266042 5.00504,-4.078992 2.57352,-16.854683 2.57352,-16.854683 z"
         id="path897" />
      <path
         style="fill:#9c3e00;fill-opacity:1;stroke:none;stroke-width:0.264583px;stroke-linecap:butt;stroke-linejoin:miter;stroke-opacity:1"
         d="m 152.73514,110.24462 c 0,0 -19.21731,19.34781 -38.07234,12.20044 -18.855028,-7.14738 -6.06994,10.5582 -6.06994,10.5582 0,0 -1.54828,2.8199 7.28623,5.3621 8.83451,2.54219 29.27749,-7.18706 34.28253,-11.26605 5.00504,-4.07899 2.57352,-16.85469 2.57352,-16.85469 z"
         id="path899" />
      <path
         style="fill:#9c3e00;fill-opacity:1;stroke:none;stroke-width:0.264583px;stroke-linecap:butt;stroke-linejoin:miter;stroke-opacity:1"
         d="m 152.73514,141.99464 c 0,0 -19.21731,19.34781 -38.07234,12.20044 -18.855028,-7.14738 -6.06994,10.5582 -6.06994,10.5582 0,0 -1.54828,2.8199 7.28623,5.3621 8.83451,2.54219 29.27749,-7.18706 34.28253,-11.26605 5.00504,-4.07899 2.57352,-16.85469 2.57352,-16.85469 z"
         id="path901" />
    </g>
  </g>
</svg>
